<mxfile host="app.diagrams.net" agent="Mozilla/5.0 (Windows NT 10.0; Win64; x64) AppleWebKit/537.36 (KHTML, like Gecko) Chrome/131.0.0.0 Safari/537.36 Edg/131.0.0.0" version="24.8.6">
  <diagram name="Page-1" id="mFtr1GAGgFkXFeqf_2lv">
    <mxGraphModel dx="1426" dy="783" grid="1" gridSize="10" guides="1" tooltips="1" connect="1" arrows="1" fold="1" page="1" pageScale="1" pageWidth="827" pageHeight="1169" math="0" shadow="0">
      <root>
        <mxCell id="0" />
        <mxCell id="1" parent="0" />
        <mxCell id="5zB5JTKMkoOnFrGz0ec3-35" style="edgeStyle=orthogonalEdgeStyle;rounded=0;orthogonalLoop=1;jettySize=auto;html=1;entryX=0;entryY=0.5;entryDx=0;entryDy=0;" edge="1" parent="1" source="5zB5JTKMkoOnFrGz0ec3-4" target="5zB5JTKMkoOnFrGz0ec3-9">
          <mxGeometry relative="1" as="geometry" />
        </mxCell>
        <mxCell id="5zB5JTKMkoOnFrGz0ec3-37" style="edgeStyle=orthogonalEdgeStyle;rounded=0;orthogonalLoop=1;jettySize=auto;html=1;exitX=1;exitY=1;exitDx=0;exitDy=0;exitPerimeter=0;entryX=0;entryY=0.5;entryDx=0;entryDy=0;" edge="1" parent="1" source="5zB5JTKMkoOnFrGz0ec3-4" target="5zB5JTKMkoOnFrGz0ec3-10">
          <mxGeometry relative="1" as="geometry" />
        </mxCell>
        <mxCell id="5zB5JTKMkoOnFrGz0ec3-4" value="User" style="shape=umlActor;verticalLabelPosition=bottom;verticalAlign=top;html=1;outlineConnect=0;" vertex="1" parent="1">
          <mxGeometry x="90" y="60" width="30" height="60" as="geometry" />
        </mxCell>
        <mxCell id="5zB5JTKMkoOnFrGz0ec3-56" style="edgeStyle=orthogonalEdgeStyle;rounded=0;orthogonalLoop=1;jettySize=auto;html=1;exitX=0;exitY=0.5;exitDx=0;exitDy=0;entryX=1;entryY=1;entryDx=0;entryDy=0;" edge="1" parent="1" source="5zB5JTKMkoOnFrGz0ec3-5" target="5zB5JTKMkoOnFrGz0ec3-10">
          <mxGeometry relative="1" as="geometry" />
        </mxCell>
        <mxCell id="5zB5JTKMkoOnFrGz0ec3-57" value="&amp;lt;&amp;lt;Include&amp;gt;&amp;gt;" style="edgeLabel;html=1;align=center;verticalAlign=middle;resizable=0;points=[];" vertex="1" connectable="0" parent="5zB5JTKMkoOnFrGz0ec3-56">
          <mxGeometry x="-0.0103" relative="1" as="geometry">
            <mxPoint as="offset" />
          </mxGeometry>
        </mxCell>
        <mxCell id="5zB5JTKMkoOnFrGz0ec3-58" style="edgeStyle=orthogonalEdgeStyle;rounded=0;orthogonalLoop=1;jettySize=auto;html=1;exitX=0.5;exitY=0;exitDx=0;exitDy=0;entryX=0;entryY=0.5;entryDx=0;entryDy=0;" edge="1" parent="1" source="5zB5JTKMkoOnFrGz0ec3-5" target="5zB5JTKMkoOnFrGz0ec3-8">
          <mxGeometry relative="1" as="geometry" />
        </mxCell>
        <mxCell id="5zB5JTKMkoOnFrGz0ec3-59" value="&amp;lt;&amp;lt;Extend&amp;gt;" style="edgeLabel;html=1;align=center;verticalAlign=middle;resizable=0;points=[];" vertex="1" connectable="0" parent="5zB5JTKMkoOnFrGz0ec3-58">
          <mxGeometry x="0.325" y="-1" relative="1" as="geometry">
            <mxPoint as="offset" />
          </mxGeometry>
        </mxCell>
        <mxCell id="5zB5JTKMkoOnFrGz0ec3-60" style="edgeStyle=orthogonalEdgeStyle;rounded=0;orthogonalLoop=1;jettySize=auto;html=1;exitX=0.5;exitY=1;exitDx=0;exitDy=0;entryX=0.5;entryY=0;entryDx=0;entryDy=0;" edge="1" parent="1" source="5zB5JTKMkoOnFrGz0ec3-5" target="5zB5JTKMkoOnFrGz0ec3-13">
          <mxGeometry relative="1" as="geometry" />
        </mxCell>
        <mxCell id="5zB5JTKMkoOnFrGz0ec3-61" value="&amp;lt;&amp;lt;Extend&amp;gt;" style="edgeLabel;html=1;align=center;verticalAlign=middle;resizable=0;points=[];" vertex="1" connectable="0" parent="5zB5JTKMkoOnFrGz0ec3-60">
          <mxGeometry x="-0.08" y="1" relative="1" as="geometry">
            <mxPoint as="offset" />
          </mxGeometry>
        </mxCell>
        <mxCell id="5zB5JTKMkoOnFrGz0ec3-62" style="edgeStyle=orthogonalEdgeStyle;rounded=0;orthogonalLoop=1;jettySize=auto;html=1;exitX=1;exitY=0.5;exitDx=0;exitDy=0;" edge="1" parent="1" source="5zB5JTKMkoOnFrGz0ec3-5" target="5zB5JTKMkoOnFrGz0ec3-7">
          <mxGeometry relative="1" as="geometry" />
        </mxCell>
        <mxCell id="5zB5JTKMkoOnFrGz0ec3-63" value="&amp;lt;&amp;lt;Extend&amp;gt;" style="edgeLabel;html=1;align=center;verticalAlign=middle;resizable=0;points=[];" vertex="1" connectable="0" parent="5zB5JTKMkoOnFrGz0ec3-62">
          <mxGeometry x="-0.175" y="2" relative="1" as="geometry">
            <mxPoint as="offset" />
          </mxGeometry>
        </mxCell>
        <mxCell id="5zB5JTKMkoOnFrGz0ec3-5" value="Book Seats" style="ellipse;whiteSpace=wrap;html=1;" vertex="1" parent="1">
          <mxGeometry x="460" y="230" width="120" height="80" as="geometry" />
        </mxCell>
        <mxCell id="5zB5JTKMkoOnFrGz0ec3-52" style="edgeStyle=orthogonalEdgeStyle;rounded=0;orthogonalLoop=1;jettySize=auto;html=1;exitX=0.5;exitY=0;exitDx=0;exitDy=0;entryX=0.5;entryY=1;entryDx=0;entryDy=0;" edge="1" parent="1" source="5zB5JTKMkoOnFrGz0ec3-6" target="5zB5JTKMkoOnFrGz0ec3-10">
          <mxGeometry relative="1" as="geometry" />
        </mxCell>
        <mxCell id="5zB5JTKMkoOnFrGz0ec3-53" value="&amp;lt;&amp;lt;Include&amp;gt;&amp;gt;" style="edgeLabel;html=1;align=center;verticalAlign=middle;resizable=0;points=[];" vertex="1" connectable="0" parent="5zB5JTKMkoOnFrGz0ec3-52">
          <mxGeometry x="-0.1167" relative="1" as="geometry">
            <mxPoint as="offset" />
          </mxGeometry>
        </mxCell>
        <mxCell id="5zB5JTKMkoOnFrGz0ec3-6" value="View Seats" style="ellipse;whiteSpace=wrap;html=1;" vertex="1" parent="1">
          <mxGeometry x="220" y="400" width="120" height="80" as="geometry" />
        </mxCell>
        <mxCell id="5zB5JTKMkoOnFrGz0ec3-7" value="Apply Concession Rates" style="ellipse;whiteSpace=wrap;html=1;" vertex="1" parent="1">
          <mxGeometry x="660" y="230" width="120" height="80" as="geometry" />
        </mxCell>
        <mxCell id="5zB5JTKMkoOnFrGz0ec3-8" value="Cancel Booking" style="ellipse;whiteSpace=wrap;html=1;" vertex="1" parent="1">
          <mxGeometry x="660" y="110" width="120" height="80" as="geometry" />
        </mxCell>
        <mxCell id="5zB5JTKMkoOnFrGz0ec3-40" style="edgeStyle=orthogonalEdgeStyle;rounded=0;orthogonalLoop=1;jettySize=auto;html=1;exitX=0.5;exitY=1;exitDx=0;exitDy=0;entryX=0.5;entryY=0;entryDx=0;entryDy=0;" edge="1" parent="1" source="5zB5JTKMkoOnFrGz0ec3-9" target="5zB5JTKMkoOnFrGz0ec3-10">
          <mxGeometry relative="1" as="geometry" />
        </mxCell>
        <mxCell id="5zB5JTKMkoOnFrGz0ec3-41" value="&amp;lt;&amp;lt;Extend&amp;gt;&amp;gt;" style="edgeLabel;html=1;align=center;verticalAlign=middle;resizable=0;points=[];" vertex="1" connectable="0" parent="5zB5JTKMkoOnFrGz0ec3-40">
          <mxGeometry x="-0.1714" y="2" relative="1" as="geometry">
            <mxPoint as="offset" />
          </mxGeometry>
        </mxCell>
        <mxCell id="5zB5JTKMkoOnFrGz0ec3-9" value="Sign Up" style="ellipse;whiteSpace=wrap;html=1;" vertex="1" parent="1">
          <mxGeometry x="220" y="50" width="120" height="80" as="geometry" />
        </mxCell>
        <mxCell id="5zB5JTKMkoOnFrGz0ec3-10" value="Login" style="ellipse;whiteSpace=wrap;html=1;" vertex="1" parent="1">
          <mxGeometry x="220" y="200" width="120" height="80" as="geometry" />
        </mxCell>
        <mxCell id="5zB5JTKMkoOnFrGz0ec3-54" style="edgeStyle=orthogonalEdgeStyle;rounded=0;orthogonalLoop=1;jettySize=auto;html=1;exitX=0.5;exitY=0;exitDx=0;exitDy=0;entryX=0;entryY=1;entryDx=0;entryDy=0;" edge="1" parent="1" source="5zB5JTKMkoOnFrGz0ec3-11" target="5zB5JTKMkoOnFrGz0ec3-10">
          <mxGeometry relative="1" as="geometry" />
        </mxCell>
        <mxCell id="5zB5JTKMkoOnFrGz0ec3-55" value="&amp;lt;&amp;lt;Include&amp;gt;&amp;gt;" style="edgeLabel;html=1;align=center;verticalAlign=middle;resizable=0;points=[];" vertex="1" connectable="0" parent="5zB5JTKMkoOnFrGz0ec3-54">
          <mxGeometry x="0.1196" y="2" relative="1" as="geometry">
            <mxPoint as="offset" />
          </mxGeometry>
        </mxCell>
        <mxCell id="5zB5JTKMkoOnFrGz0ec3-11" value="Select Event" style="ellipse;whiteSpace=wrap;html=1;" vertex="1" parent="1">
          <mxGeometry x="110" y="340" width="120" height="80" as="geometry" />
        </mxCell>
        <mxCell id="5zB5JTKMkoOnFrGz0ec3-49" style="edgeStyle=orthogonalEdgeStyle;rounded=0;orthogonalLoop=1;jettySize=auto;html=1;exitX=0;exitY=0.5;exitDx=0;exitDy=0;entryX=1;entryY=0.5;entryDx=0;entryDy=0;" edge="1" parent="1" source="5zB5JTKMkoOnFrGz0ec3-12" target="5zB5JTKMkoOnFrGz0ec3-10">
          <mxGeometry relative="1" as="geometry" />
        </mxCell>
        <mxCell id="5zB5JTKMkoOnFrGz0ec3-50" value="&amp;lt;&amp;lt;Include&amp;gt;&amp;gt;" style="edgeLabel;html=1;align=center;verticalAlign=middle;resizable=0;points=[];" vertex="1" connectable="0" parent="5zB5JTKMkoOnFrGz0ec3-49">
          <mxGeometry x="-0.0268" y="1" relative="1" as="geometry">
            <mxPoint as="offset" />
          </mxGeometry>
        </mxCell>
        <mxCell id="5zB5JTKMkoOnFrGz0ec3-12" value="Display Event Program" style="ellipse;whiteSpace=wrap;html=1;" vertex="1" parent="1">
          <mxGeometry x="414" y="50" width="120" height="80" as="geometry" />
        </mxCell>
        <mxCell id="5zB5JTKMkoOnFrGz0ec3-13" value="Loyalty Card Early Booking" style="ellipse;whiteSpace=wrap;html=1;" vertex="1" parent="1">
          <mxGeometry x="460" y="360" width="120" height="80" as="geometry" />
        </mxCell>
        <mxCell id="5zB5JTKMkoOnFrGz0ec3-21" style="edgeStyle=orthogonalEdgeStyle;rounded=0;orthogonalLoop=1;jettySize=auto;html=1;entryX=0;entryY=0.5;entryDx=0;entryDy=0;" edge="1" parent="1" source="5zB5JTKMkoOnFrGz0ec3-14" target="5zB5JTKMkoOnFrGz0ec3-16">
          <mxGeometry relative="1" as="geometry" />
        </mxCell>
        <mxCell id="5zB5JTKMkoOnFrGz0ec3-14" value="Admin" style="shape=umlActor;verticalLabelPosition=bottom;verticalAlign=top;html=1;outlineConnect=0;" vertex="1" parent="1">
          <mxGeometry x="90" y="525" width="30" height="60" as="geometry" />
        </mxCell>
        <mxCell id="5zB5JTKMkoOnFrGz0ec3-16" value="Login" style="ellipse;whiteSpace=wrap;html=1;" vertex="1" parent="1">
          <mxGeometry x="190" y="515" width="120" height="80" as="geometry" />
        </mxCell>
        <mxCell id="5zB5JTKMkoOnFrGz0ec3-29" style="edgeStyle=orthogonalEdgeStyle;rounded=0;orthogonalLoop=1;jettySize=auto;html=1;exitX=0;exitY=0.5;exitDx=0;exitDy=0;entryX=1;entryY=0.5;entryDx=0;entryDy=0;" edge="1" parent="1" source="5zB5JTKMkoOnFrGz0ec3-17" target="5zB5JTKMkoOnFrGz0ec3-16">
          <mxGeometry relative="1" as="geometry" />
        </mxCell>
        <mxCell id="5zB5JTKMkoOnFrGz0ec3-33" value="&amp;lt;&amp;lt;Include&amp;gt;&amp;gt;" style="edgeLabel;html=1;align=center;verticalAlign=middle;resizable=0;points=[];" vertex="1" connectable="0" parent="5zB5JTKMkoOnFrGz0ec3-29">
          <mxGeometry x="-0.0857" relative="1" as="geometry">
            <mxPoint as="offset" />
          </mxGeometry>
        </mxCell>
        <mxCell id="5zB5JTKMkoOnFrGz0ec3-17" value="Add Event" style="ellipse;whiteSpace=wrap;html=1;" vertex="1" parent="1">
          <mxGeometry x="430" y="515" width="120" height="80" as="geometry" />
        </mxCell>
        <mxCell id="5zB5JTKMkoOnFrGz0ec3-28" style="edgeStyle=orthogonalEdgeStyle;rounded=0;orthogonalLoop=1;jettySize=auto;html=1;exitX=0;exitY=0.5;exitDx=0;exitDy=0;entryX=1;entryY=0.5;entryDx=0;entryDy=0;" edge="1" parent="1" source="5zB5JTKMkoOnFrGz0ec3-18" target="5zB5JTKMkoOnFrGz0ec3-19">
          <mxGeometry relative="1" as="geometry" />
        </mxCell>
        <mxCell id="5zB5JTKMkoOnFrGz0ec3-32" value="&amp;lt;&amp;lt;Include&amp;gt;&amp;gt;" style="edgeLabel;html=1;align=center;verticalAlign=middle;resizable=0;points=[];" vertex="1" connectable="0" parent="5zB5JTKMkoOnFrGz0ec3-28">
          <mxGeometry x="-0.0857" y="1" relative="1" as="geometry">
            <mxPoint as="offset" />
          </mxGeometry>
        </mxCell>
        <mxCell id="5zB5JTKMkoOnFrGz0ec3-18" value="Cancel Events" style="ellipse;whiteSpace=wrap;html=1;" vertex="1" parent="1">
          <mxGeometry x="430" y="640" width="120" height="80" as="geometry" />
        </mxCell>
        <mxCell id="5zB5JTKMkoOnFrGz0ec3-26" style="edgeStyle=orthogonalEdgeStyle;rounded=0;orthogonalLoop=1;jettySize=auto;html=1;entryX=0.5;entryY=1;entryDx=0;entryDy=0;" edge="1" parent="1" source="5zB5JTKMkoOnFrGz0ec3-19" target="5zB5JTKMkoOnFrGz0ec3-16">
          <mxGeometry relative="1" as="geometry" />
        </mxCell>
        <mxCell id="5zB5JTKMkoOnFrGz0ec3-27" value="&amp;lt;&amp;lt;Include&amp;gt;&amp;gt;" style="edgeLabel;html=1;align=center;verticalAlign=middle;resizable=0;points=[];" vertex="1" connectable="0" parent="5zB5JTKMkoOnFrGz0ec3-26">
          <mxGeometry x="-0.0222" y="1" relative="1" as="geometry">
            <mxPoint as="offset" />
          </mxGeometry>
        </mxCell>
        <mxCell id="5zB5JTKMkoOnFrGz0ec3-19" value="Review Events" style="ellipse;whiteSpace=wrap;html=1;" vertex="1" parent="1">
          <mxGeometry x="190" y="640" width="120" height="80" as="geometry" />
        </mxCell>
        <mxCell id="5zB5JTKMkoOnFrGz0ec3-30" style="edgeStyle=orthogonalEdgeStyle;rounded=0;orthogonalLoop=1;jettySize=auto;html=1;" edge="1" parent="1" source="5zB5JTKMkoOnFrGz0ec3-20" target="5zB5JTKMkoOnFrGz0ec3-19">
          <mxGeometry relative="1" as="geometry" />
        </mxCell>
        <mxCell id="5zB5JTKMkoOnFrGz0ec3-31" value="&amp;lt;&amp;lt;Include&amp;gt;&amp;gt;" style="edgeLabel;html=1;align=center;verticalAlign=middle;resizable=0;points=[];" vertex="1" connectable="0" parent="5zB5JTKMkoOnFrGz0ec3-30">
          <mxGeometry x="-0.04" y="2" relative="1" as="geometry">
            <mxPoint as="offset" />
          </mxGeometry>
        </mxCell>
        <mxCell id="5zB5JTKMkoOnFrGz0ec3-20" value="Send Event-wide Email" style="ellipse;whiteSpace=wrap;html=1;" vertex="1" parent="1">
          <mxGeometry x="190" y="770" width="120" height="80" as="geometry" />
        </mxCell>
      </root>
    </mxGraphModel>
  </diagram>
</mxfile>
